<svg xmlns="http://www.w3.org/2000/svg" viewBox="0 0 64 64">
  <defs>
    <linearGradient id="g" x1="0" y1="0" x2="1" y2="1">
      <stop offset="0%" stop-color="#6366f1"/>
      <stop offset="100%" stop-color="#22d3ee"/>
    </linearGradient>
  </defs>

  <rect x="8" y="18" width="16" height="4" rx="2" fill="#94a3b8"/>
  <rect x="8" y="26" width="14" height="4" rx="2" fill="#94a3b8"/>
  <rect x="8" y="34" width="12" height="4" rx="2" fill="#94a3b8"/>

  <path d="M28 30 L36 30" stroke="#64748b" stroke-width="3" stroke-linecap="round"/>
  <path d="M34 27 L38 30 L34 33" stroke="#64748b" stroke-width="3" fill="none" stroke-linecap="round"/>

  <rect x="42" y="18" width="14" height="4" rx="2" fill="url(#g)"/>
  <rect x="42" y="26" width="16" height="4" rx="2" fill="url(#g)"/>
  <rect x="42" y="34" width="18" height="4" rx="2" fill="url(#g)"/>

  <path d="M48 23 L49.5 26 L53 27 L49.5 28 L48 31 L46.5 28 L43 27 L46.5 26 Z" fill="#facc15"/>

  <path d="M44 12
           C44 10.8 45.2 10 46.2 10.8
           C47.2 10 48.4 10.8 48.4 12
           C48.4 13.4 47.2 14.4 46.2 15.6
           C45.2 14.4 44 13.4 44 12 Z"
        fill="none"
        stroke="white"
        stroke-width="0.2"/>

  <path d="M56 16 L56.8 17.8 L59 18.5 L56.8 19.2 L56 21 L55.2 19.2 L53 18.5 L55.2 17.8 Z" fill="#fde047"/>

  <path d="M57 36 L58 38 L60 39 L58 40 L57 42 L56 40 L54 39 L56 38 Z" fill="#fde047"/>
</svg>